<svg width="44" height="44" viewBox="0 0 44 44" fill="none" xmlns="http://www.w3.org/2000/svg">
<path d="M21.625 11.875C20.5375 11.875 19.675 12.7375 19.675 13.825V22.675C19.675 23.3875 20.0875 24.0625 20.725 24.4L26.275 27.3625C26.575 27.5125 26.875 27.5875 27.175 27.5875C27.8875 27.5875 28.5625 27.2125 28.9 26.5375C29.425 25.6 29.05 24.4 28.075 23.875L23.575 21.475V13.825C23.6125 12.7375 22.7125 11.875 21.625 11.875Z" fill="#63BEFF"/>
<path d="M34.7125 9.25C31.375 5.95 26.9875 4.1125 22.3 4.1125C17.65 4.1125 13.3 5.875 10 9.1375L8.2 7.3375C7.525 6.6625 6.3625 7 6.1375 7.9375L4.225 16.225C4 17.125 4.825 17.9125 5.6875 17.6875L13.975 15.775C14.9125 15.55 15.25 14.3875 14.575 13.7125L12.8125 11.95C13 11.7625 13.1875 11.575 13.375 11.425C18.4375 6.925 26.125 6.9625 31.225 11.425C34.225 14.0875 35.9125 17.9125 35.8375 21.925C35.7625 25.9375 33.925 29.6875 30.8125 32.2375C25.975 36.175 18.8875 36.25 13.975 32.425C12.2875 31.1125 10.975 29.5 10.075 27.625C9.7375 26.95 9.025 26.5 8.275 26.5C8.125 26.5 7.9375 26.5375 7.7875 26.575C7.225 26.725 6.7375 27.1 6.475 27.6625C6.2125 28.225 6.2125 28.825 6.475 29.3875C7.4125 31.3375 8.6875 33.0625 10.3 34.5625C16.8625 40.675 27.25 40.7875 33.9625 34.7875C37.5625 31.525 39.6625 27.0625 39.775 22.225C39.925 17.275 38.125 12.7 34.7125 9.25Z" fill="#63BEFF"/>
</svg>
