<svg width="44" height="44" viewBox="0 0 44 44" fill="none" xmlns="http://www.w3.org/2000/svg">
<path d="M22 4C31.9411 4 40 12.0589 40 22C40 31.9411 31.9411 40 22 40C12.0589 40 4 31.9411 4 22C4 12.0589 12.0589 4 22 4ZM13.9 31.9C12.9646 31.9 12.0596 31.7703 11.2018 31.5279C13.8408 34.5156 17.7004 36.4 22 36.4C29.9529 36.4 36.4 29.9529 36.4 22C36.4 18.5206 33.5794 15.7 30.1 15.7C26.6931 15.7 23.9178 18.4043 23.8037 21.7834L23.8 22C23.8 27.4676 19.3676 31.9 13.9 31.9ZM30.1 12.1C31.0354 12.1 31.9404 12.2297 32.7982 12.4721C30.1592 9.48442 26.2996 7.6 22 7.6C14.0471 7.6 7.6 14.0471 7.6 22C7.6 25.4794 10.4206 28.3 13.9 28.3C17.3069 28.3 20.0822 25.5957 20.1963 22.2166L20.2 22C20.2 16.5324 24.6324 12.1 30.1 12.1Z" fill="#FF96CB"/>
<path d="M13.9 25.6C15.3912 25.6 16.6 24.3912 16.6 22.9C16.6 21.4088 15.3912 20.2 13.9 20.2C12.4088 20.2 11.2 21.4088 11.2 22.9C11.2 24.3912 12.4088 25.6 13.9 25.6Z" fill="#FF96CB"/>
<path d="M30.1 25.6C31.5912 25.6 32.8 24.3912 32.8 22.9C32.8 21.4088 31.5912 20.2 30.1 20.2C28.6088 20.2 27.4 21.4088 27.4 22.9C27.4 24.3912 28.6088 25.6 30.1 25.6Z" fill="#FF96CB"/>
</svg>
