<svg width="44" height="44" viewBox="0 0 44 44" fill="none" xmlns="http://www.w3.org/2000/svg">
<path d="M22 4C31.9411 4 40 12.0589 40 22C40 31.9411 31.9411 40 22 40C12.0589 40 4 31.9411 4 22C4 12.0589 12.0589 4 22 4ZM22 8C14.268 8 8 14.268 8 22C8 28.9536 13.0695 34.7231 19.7141 35.8143L19.714 32.749L18.0373 30.573L15.3189 27.0373C14.9823 26.5994 15.0643 25.9716 15.5021 25.635C15.6768 25.5007 15.8909 25.4278 16.1113 25.4278L22 25.4254L27.8887 25.4278C28.441 25.428 28.8886 25.8759 28.8883 26.4282C28.8882 26.6485 28.8154 26.8626 28.6811 27.0373L25.9627 30.573L24.285 32.749L24.2859 35.8143C30.8307 34.7395 35.8473 29.1259 35.9966 22.3126L36 22C36 14.268 29.732 8 22 8Z" fill="#CBA6FF"/>
<path d="M31.1429 24.2857C32.4052 24.2857 33.4286 23.2624 33.4286 22C33.4286 20.7376 32.4052 19.7143 31.1429 19.7143C29.8805 19.7143 28.8571 20.7376 28.8571 22C28.8571 23.2624 29.8805 24.2857 31.1429 24.2857Z" fill="#CBA6FF"/>
<path d="M12.8571 24.2857C14.1195 24.2857 15.1429 23.2624 15.1429 22C15.1429 20.7376 14.1195 19.7143 12.8571 19.7143C11.5948 19.7143 10.5714 20.7376 10.5714 22C10.5714 23.2624 11.5948 24.2857 12.8571 24.2857Z" fill="#CBA6FF"/>
</svg>
