<svg width="44" height="44" viewBox="0 0 44 44" fill="none" xmlns="http://www.w3.org/2000/svg">
<path d="M22 4C12.0589 4 4 12.0589 4 22C4 31.9411 12.0589 40 22 40C31.9411 40 40 31.9411 40 22C40 12.0589 31.9411 4 22 4ZM22 7.6C29.9529 7.6 36.4 14.0471 36.4 22C36.4 29.9529 29.9529 36.4 22 36.4C14.0471 36.4 7.6 29.9529 7.6 22C7.6 14.0471 14.0471 7.6 22 7.6Z" fill="#FFA24D"/>
<path fill-rule="evenodd" clip-rule="evenodd" d="M26.4093 32.0379C26.2336 32.2137 25.9487 32.2137 25.7729 32.0379L22.0004 28.2654L18.2271 32.0379C18.0513 32.2137 17.7664 32.2137 17.5907 32.0379L16.5906 31.0379C16.4149 30.8622 16.4149 30.5772 16.5906 30.4015L20.3636 26.6286L16.5906 22.8557C16.4149 22.6799 16.4149 22.395 16.5906 22.2193L17.5907 21.2192C17.7664 21.0435 18.0513 21.0435 18.2271 21.2192L22.0004 24.9918L25.7729 21.2192C25.9487 21.0435 26.2336 21.0435 26.4093 21.2192L27.4094 22.2193C27.5851 22.395 27.5851 22.6799 27.4094 22.8557L23.6372 26.6286L27.4094 30.4015C27.5851 30.5772 27.5851 30.8622 27.4094 31.0379L26.4093 32.0379Z" fill="#FFA24D"/>
</svg>
