<?xml version="1.0" encoding="UTF-8"?>
<svg width="16px" height="16px" viewBox="0 0 16 16" version="1.1" xmlns="http://www.w3.org/2000/svg" xmlns:xlink="http://www.w3.org/1999/xlink">
    <!-- Generator: Sketch 50.2 (55047) - http://www.bohemiancoding.com/sketch -->
    <title>i--account</title>
    <desc>Created with Sketch.</desc>
    <defs></defs>
    <g id="WM-2018-with-Imagery" stroke="none" stroke-width="1" fill="none" fill-rule="evenodd">
        <g id="i--account" fill="#000000">
            <g id="Group">
                <path d="M8,16 C12.4182782,16 16,12.4182782 16,8 C16,3.58172185 12.4182782,0 8,0 C3.58172185,0 0,3.58172185 0,8 C0,12.4182782 3.58172185,16 8,16 Z M8,8.61538462 C9.69933785,8.61538462 11.0769231,7.23779938 11.0769231,5.53846154 C11.0769231,3.83912369 9.69933785,2.46153846 8,2.46153846 C6.30066215,2.46153846 4.92307692,3.83912369 4.92307692,5.53846154 C4.92307692,7.23779938 6.30066215,8.61538462 8,8.61538462 Z M2.21043015,11.5095268 C3.39759569,13.4637705 5.54634462,14.7692308 8,14.7692308 C10.4536554,14.7692308 12.6024043,13.4637705 13.7895698,11.5095268 C13.7825206,11.4557015 13.7611348,11.4030578 13.7247489,11.3575729 C12.9661637,10.4092874 11.7651754,9.84615385 10.1538462,9.84615385 L5.84615385,9.84615385 C4.23482462,9.84615385 3.03383631,10.4092874 2.27525108,11.3575729 C2.23886523,11.4030578 2.21747938,11.4557015 2.21043015,11.5095268 Z" id="Shape"></path>
            </g>
        </g>
    </g>
</svg>