<svg width="24" height="24" xmlns="http://www.w3.org/2000/svg"><g fill="#FFF" fill-rule="nonzero"><path d="M17.798 1.882A11.637 11.637 0 0 0 12 .345c-2.11 0-4.089.559-5.798 1.537L12 4.93l5.798-3.047zM19.85 3.372l-1.108 6.456 4.704 4.586c.16-.769.243-1.565.243-2.38a11.66 11.66 0 0 0-3.84-8.662zM13.253 23.655c4.213-.449 7.756-3.135 9.419-6.847l-6.506.945-2.913 5.902zM4.151 3.372a11.659 11.659 0 0 0-3.84 8.662c0 .815.084 1.61.243 2.38l4.704-4.587-1.107-6.455zM1.328 16.808c1.663 3.712 5.207 6.398 9.419 6.847l-2.913-5.902-6.506-.945zM14.18 8.844l-4.535.718-.718 4.535 4.091 2.085 3.247-3.247z"/></g></svg>