<svg width="44" height="44" viewBox="0 0 44 44" fill="none" xmlns="http://www.w3.org/2000/svg">
<path d="M29.35 22.6376L23.1921 6.90226C22.7184 5.69925 21.0131 5.69925 20.5394 6.90226L14.6184 22.6376L6.37629 14.794C5.33418 13.8316 3.67629 14.794 4.05523 16.1895L7.41839 30.0481C7.65523 31.0105 8.50786 31.7323 9.54997 31.7323H21.8658H22.1026H34.4184C35.4131 31.7323 36.3131 31.0105 36.55 30.0481L39.9131 16.1895C40.2447 14.794 38.5868 13.8316 37.5921 14.794L29.35 22.6376Z" fill="#66FFDB"/>
<path d="M33.8026 37.7474H10.4026C9.17102 37.7474 8.17629 36.7368 8.17629 35.4857C8.17629 34.2346 9.17102 33.2241 10.4026 33.2241H33.7552C34.9868 33.2241 35.9815 34.2346 35.9815 35.4857C35.9815 36.7368 34.9868 37.7474 33.8026 37.7474Z" fill="#66FFDB"/>
</svg>
