<svg width="24" height="24" xmlns="http://www.w3.org/2000/svg"><g fill="#000" fill-rule="nonzero"><path d="M23.782 15.617a.817.817 0 0 0-.819-.817h-3.38L19.5 4.19a3 3 0 0 0-3-2.973H3.217a3 3 0 0 0-3 3V17.61a3.9 3.9 0 0 0 3.9 3.927h15.9a3.9 3.9 0 0 0 3.765-3.927v-1.992zM4.117 19.9a2.265 2.265 0 0 1-2.263-2.265V4.219c0-.753.612-1.364 1.365-1.364h13.254c.753.001 1.364.612 1.364 1.366l.08 10.608H7.228a.817.817 0 0 0-.817.819v1.99A2.265 2.265 0 0 1 4.117 19.9zm18.029-2.265a2.265 2.265 0 0 1-2.265 2.265H7.311a3.86 3.86 0 0 0 .735-2.265v-1.2h14.1v1.2z"/><path d="M4.037 4.79h6.409v1.637h-6.41V4.791zm0 3.273H15.9V9.7H4.036V8.064zm0 3.273H15.9v1.637H4.036v-1.637z"/></g></svg>