<?xml version="1.0" encoding="UTF-8"?>
<svg width="16px" height="14px" viewBox="0 0 16 14" version="1.1" xmlns="http://www.w3.org/2000/svg" xmlns:xlink="http://www.w3.org/1999/xlink">
    <!-- Generator: Sketch 50.2 (55047) - http://www.bohemiancoding.com/sketch -->
    <title>i--rules</title>
    <desc>Created with Sketch.</desc>
    <defs></defs>
    <g id="WM-2018-with-Imagery" stroke="none" stroke-width="1" fill="none" fill-rule="evenodd">
        <g id="i--rules" fill="#000000" fill-rule="nonzero">
            <path d="M15.8545455,9.74545455 C15.8545455,9.44420832 15.6103371,9.2 15.3090909,9.2 L13.0545455,9.2 L13,2.12727273 C12.9900227,1.02981024 12.0975078,0.145409193 11,0.145454545 L2.14545455,0.145454545 C1.04088505,0.145454545 0.145454545,1.04088505 0.145454545,2.14545455 L0.145454545,11.0727273 C0.140610317,11.765435 0.412398073,12.4314357 0.900518694,12.9229698 C1.38863931,13.4145038 2.05272988,13.690926 2.74545455,13.6909091 L13.3454545,13.6909091 C14.7528534,13.64171 15.8652531,12.4809451 15.8545455,11.0727273 L15.8545455,9.74545455 Z M2.74545455,12.6 C1.91200665,12.6 1.23636364,11.924357 1.23636364,11.0909091 L1.23636364,2.14545455 C1.23636364,1.6433775 1.6433775,1.23636364 2.14545455,1.23636364 L10.9818182,1.23636364 C11.4838952,1.23636364 11.8909091,1.6433775 11.8909091,2.14545455 L11.9454545,9.21818182 L4.81818182,9.21818182 C4.51693559,9.21818182 4.27272727,9.46239014 4.27272727,9.76363636 L4.27272727,11.0909091 C4.27275655,11.4943151 4.11127008,11.8809396 3.82431602,12.1644775 C3.53736195,12.4480155 3.14883127,12.6048603 2.74545455,12.6 Z M14.7636364,11.0909091 C14.7636364,11.924357 14.0879933,12.6 13.2545455,12.6 L4.87272727,12.6 C5.19073474,12.1609811 5.36248689,11.6330023 5.36363636,11.0909091 L5.36363636,10.2909091 L14.7636364,10.2909091 L14.7636364,11.0909091 Z" id="Shape"></path>
            <rect id="Rectangle-path" x="2.69090909" y="2.52727273" width="4.27272727" height="1.09090909"></rect>
            <rect id="Rectangle-path" x="2.69090909" y="4.70909091" width="7.90909091" height="1.09090909"></rect>
            <rect id="Rectangle-path" x="2.69090909" y="6.89090909" width="7.90909091" height="1.09090909"></rect>
        </g>
    </g>
</svg>